<?xml version="1.0" encoding="utf-8"?>
<!-- Generator: Adobe Illustrator 16.0.0, SVG Export Plug-In . SVG Version: 6.00 Build 0)  -->
<!DOCTYPE svg PUBLIC "-//W3C//DTD SVG 1.1//EN" "http://www.w3.org/Graphics/SVG/1.1/DTD/svg11.dtd">
<svg version="1.1" id="Layer_1" xmlns="http://www.w3.org/2000/svg" xmlns:xlink="http://www.w3.org/1999/xlink" x="0px" y="0px"
	 width="72px" height="76px" viewBox="0 0 206.193 218.864" enable-background="new 0 0 206.193 218.864"
	 xml:space="preserve">
<g>
	<defs>
		<rect id="SVGID_1_" width="206.193" height="218.864"/>
	</defs>
	<clipPath id="SVGID_2_">
		<use xlink:href="#SVGID_1_"  overflow="visible"/>
	</clipPath>
	<path clip-path="url(#SVGID_2_)" fill="#fcba4f" d="M90.632,83.717c-0.544,0-1.095-0.147-1.59-0.458
		c-1.355-0.85-2.82-1.643-4.37-2.482c-6.117-3.314-13.051-7.069-13.051-15.073c0-8.004,6.932-11.758,13.047-15.071
		c6.164-3.339,9.906-5.664,9.906-9.797c0-4.131-3.742-6.456-9.905-9.795c-6.116-3.312-13.048-7.067-13.048-15.07
		c0-8.004,6.935-11.759,13.053-15.072l0.98-0.532c1.458-0.796,3.278-0.255,4.07,1.199c0.793,1.455,0.257,3.276-1.198,4.069
		l-0.996,0.54c-6.165,3.339-9.909,5.664-9.909,9.796c0,4.131,3.742,6.456,9.906,9.795c6.116,3.312,13.047,7.067,13.047,15.07
		c0,8.004-6.931,11.76-13.047,15.072c-6.164,3.339-9.906,5.664-9.906,9.796c0,4.132,3.743,6.457,9.908,9.797
		c1.565,0.847,3.182,1.723,4.699,2.674c1.404,0.88,1.829,2.731,0.949,4.135C92.608,83.219,91.631,83.717,90.632,83.717"/>
	<path clip-path="url(#SVGID_2_)" fill="#fcba4f" d="M124.632,83.717c-0.544,0-1.095-0.147-1.59-0.458
		c-1.355-0.85-2.82-1.643-4.37-2.482c-6.117-3.314-13.051-7.069-13.051-15.073c0-8.004,6.932-11.758,13.047-15.071
		c6.164-3.339,9.906-5.664,9.906-9.797c0-4.131-3.742-6.456-9.905-9.795c-6.116-3.312-13.048-7.067-13.048-15.07
		c0-8.004,6.935-11.759,13.053-15.072l0.98-0.532c1.458-0.796,3.277-0.255,4.069,1.199c0.793,1.455,0.257,3.276-1.197,4.069
		l-0.996,0.54c-6.165,3.339-9.909,5.664-9.909,9.796c0,4.131,3.742,6.456,9.906,9.795c6.115,3.312,13.047,7.067,13.047,15.07
		c0,8.004-6.932,11.76-13.047,15.072c-6.164,3.339-9.906,5.664-9.906,9.796c0,4.132,3.743,6.457,9.908,9.797
		c1.564,0.847,3.182,1.723,4.698,2.674c1.404,0.88,1.829,2.731,0.949,4.135C126.607,83.219,125.631,83.717,124.632,83.717"/>
	<path clip-path="url(#SVGID_2_)" fill="#fcba4f" d="M133.106,218.864H73.086v-16.6C29.937,189.158,0,148.917,0,103.608v-3h206.193
		v3c0,45.309-29.937,85.549-73.087,98.656V218.864z M79.086,212.864h48.021v-15.126l2.191-0.612
		c40.776-11.402,69.54-48.367,70.85-90.518H6.047c1.309,42.152,30.071,79.116,70.847,90.517l2.192,0.613V212.864z"/>
	<path clip-path="url(#SVGID_2_)" fill="#fcba4f" d="M195.783,138.85h-87.746c-1.657,0-3-1.343-3-3s1.343-3,3-3h87.746
		c1.657,0,3,1.343,3,3S197.44,138.85,195.783,138.85"/>
	<path clip-path="url(#SVGID_2_)" fill="#fcba4f" d="M176.449,172.823h-68.412c-1.657,0-3-1.343-3-3s1.343-3,3-3h68.412
		c1.657,0,3,1.343,3,3S178.106,172.823,176.449,172.823"/>
	<path clip-path="url(#SVGID_2_)" fill="#fcba4f" d="M187.783,155.836h-58.336c-1.657,0-3-1.343-3-3s1.343-3,3-3h58.336
		c1.657,0,3,1.343,3,3S189.44,155.836,187.783,155.836"/>
	<path clip-path="url(#SVGID_2_)" fill="#fcba4f" d="M200.783,121.864h-66.336c-1.657,0-3-1.343-3-3s1.343-3,3-3h66.336
		c1.657,0,3,1.343,3,3S202.44,121.864,200.783,121.864"/>
	<path clip-path="url(#SVGID_2_)" fill="#fcba4f" d="M158.449,189.809h-26.002c-1.657,0-3-1.343-3-3s1.343-3,3-3h26.002
		c1.657,0,3,1.343,3,3S160.106,189.809,158.449,189.809"/>
</g>
</svg>
