<?xml version="1.0" encoding="utf-8"?>
<!-- Generator: Adobe Illustrator 16.0.0, SVG Export Plug-In . SVG Version: 6.00 Build 0)  -->
<!DOCTYPE svg PUBLIC "-//W3C//DTD SVG 1.1//EN" "http://www.w3.org/Graphics/SVG/1.1/DTD/svg11.dtd">
<svg version="1.1" id="Layer_1" xmlns="http://www.w3.org/2000/svg" xmlns:xlink="http://www.w3.org/1999/xlink" x="0px" y="0px"
	 width="150px" height="56px" viewBox="0 0 43.275 15.781" enable-background="new 0 0 43.275 15.781" xml:space="preserve">
<g>
	<defs>
		<rect id="SVGID_1_" y="0" width="43.275" height="15.781"/>
	</defs>
	<clipPath id="SVGID_2_">
		<use xlink:href="#SVGID_1_"  overflow="visible"/>
	</clipPath>
	<path clip-path="url(#SVGID_2_)" d="M0.866,6.164c0.212-0.036,0.438-0.072,0.68-0.112c0.241-0.031,0.483-0.048,0.728-0.037
		c0.243,0.008,0.479,0.047,0.71,0.116C3.216,6.202,3.425,6.32,3.617,6.488C3.81,6.656,3.978,6.881,4.121,7.166
		c0.143,0.279,0.247,0.64,0.313,1.072c0.069,0.428,0.075,0.797,0.028,1.109c-0.049,0.311-0.138,0.574-0.261,0.789
		c-0.126,0.217-0.283,0.393-0.472,0.527C3.54,10.803,3.34,10.912,3.122,11c-0.215,0.086-0.438,0.154-0.666,0.201
		s-0.442,0.09-0.644,0.127c-0.278,0.049-0.552,0.102-0.828,0.154C0.657,9.766,0.33,8.045,0,6.328
		C0.288,6.273,0.577,6.218,0.866,6.164 M2.118,10.488c0.197-0.035,0.401-0.09,0.61-0.164c0.206-0.074,0.392-0.19,0.548-0.348
		c0.16-0.158,0.279-0.365,0.355-0.625c0.077-0.259,0.083-0.59,0.02-0.994c-0.045-0.271-0.111-0.5-0.199-0.689
		c-0.088-0.19-0.19-0.344-0.305-0.465c-0.119-0.115-0.245-0.209-0.383-0.27C2.627,6.867,2.483,6.826,2.336,6.802
		C2.189,6.779,2.041,6.775,1.891,6.785C1.744,6.797,1.603,6.818,1.466,6.84C1.29,6.873,1.117,6.904,0.94,6.933
		c0.224,1.217,0.447,2.434,0.669,3.649C1.779,10.549,1.947,10.518,2.118,10.488"/>
	<path clip-path="url(#SVGID_2_)" d="M7.519,5.14c0.38-0.049,0.743-0.022,1.092,0.077c0.347,0.097,0.658,0.25,0.932,0.462
		c0.274,0.209,0.495,0.468,0.67,0.768c0.173,0.303,0.278,0.635,0.314,0.996c0.035,0.36,0,0.707-0.108,1.037
		c-0.107,0.33-0.267,0.627-0.481,0.891c-0.215,0.262-0.474,0.479-0.776,0.65c-0.302,0.174-0.636,0.279-0.999,0.326
		c-0.363,0.045-0.71,0.02-1.048-0.074c-0.335-0.09-0.639-0.238-0.911-0.439C5.931,9.631,5.701,9.383,5.513,9.088
		c-0.184-0.293-0.306-0.619-0.36-0.979C5.101,7.748,5.122,7.402,5.219,7.066C5.315,6.73,5.471,6.427,5.684,6.155
		C5.899,5.886,6.163,5.66,6.476,5.481C6.79,5.301,7.136,5.187,7.519,5.14 M8.058,9.49C8.3,9.459,8.522,9.389,8.728,9.271
		S9.11,9.008,9.251,8.832c0.146-0.174,0.253-0.375,0.326-0.598c0.069-0.223,0.09-0.455,0.065-0.701
		c-0.028-0.242-0.1-0.465-0.217-0.666C9.31,6.668,9.16,6.496,8.974,6.355C8.79,6.216,8.581,6.114,8.35,6.049
		C8.116,5.982,7.873,5.966,7.623,5.996C7.371,6.025,7.136,6.103,6.925,6.224c-0.21,0.121-0.385,0.27-0.53,0.452
		C6.25,6.857,6.146,7.06,6.08,7.283S6,7.738,6.034,7.982C6.07,8.224,6.146,8.443,6.27,8.644c0.125,0.201,0.274,0.368,0.459,0.502
		c0.182,0.135,0.389,0.234,0.616,0.297C7.574,9.506,7.811,9.523,8.058,9.49"/>
	<path clip-path="url(#SVGID_2_)" d="M14.495,7.82c-0.071-1.105-0.145-2.207-0.217-3.313c0.271-0.017,0.542-0.033,0.812-0.049
		c0.102,1.747,0.204,3.495,0.303,5.237c-1.103-0.998-2.237-1.982-3.401-2.947c0.092,1.054,0.184,2.115,0.275,3.173
		c-0.258,0.025-0.515,0.047-0.773,0.072c-0.162-1.742-0.324-3.485-0.486-5.229C12.198,5.768,13.362,6.785,14.495,7.82"/>
	<path clip-path="url(#SVGID_2_)" d="M19.946,9.525c-0.107-0.236-0.213-0.473-0.322-0.707c-0.819,0.018-1.641,0.041-2.465,0.074
		c-0.09,0.242-0.183,0.484-0.275,0.729c-0.261,0.012-0.52,0.023-0.781,0.037c0.682-1.789,1.4-3.567,2.154-5.34
		c0.861,1.721,1.687,3.457,2.477,5.195C20.472,9.518,20.207,9.52,19.946,9.525 M17.464,8.111c0.604-0.025,1.206-0.043,1.809-0.059
		c-0.317-0.683-0.639-1.367-0.963-2.045C18.024,6.709,17.74,7.406,17.464,8.111"/>
	<path clip-path="url(#SVGID_2_)" d="M22.973,5.035c-0.515-0.002-1.031-0.005-1.547-0.002c0-0.256,0-0.516-0.002-0.77
		c1.304-0.006,2.604,0.01,3.906,0.051c-0.008,0.254-0.017,0.512-0.024,0.771c-0.509-0.017-1.018-0.029-1.526-0.038
		c-0.025,1.494-0.05,2.984-0.075,4.478c-0.259-0.006-0.517-0.008-0.775-0.012C22.942,8.023,22.959,6.529,22.973,5.035"/>
	<path clip-path="url(#SVGID_2_)" d="M29.537,4.513c-0.017,0.242-0.033,0.484-0.05,0.726c-0.853-0.055-1.705-0.101-2.562-0.137
		c-0.021,0.528-0.047,1.053-0.068,1.582c0.68,0.031,1.358,0.064,2.038,0.107c-0.013,0.242-0.029,0.485-0.043,0.727
		c-0.677-0.041-1.352-0.078-2.028-0.106c-0.022,0.491-0.041,0.981-0.063,1.471c0.825,0.035,1.652,0.08,2.479,0.135
		c-0.017,0.244-0.033,0.488-0.05,0.734c-1.079-0.072-2.157-0.127-3.235-0.168c0.063-1.748,0.13-3.497,0.192-5.244
		C27.278,4.381,28.406,4.442,29.537,4.513"/>
	<path clip-path="url(#SVGID_2_)" d="M29.972,9.807c0.127-1.744,0.253-3.492,0.383-5.236c0.27,0.019,0.54,0.041,0.809,0.063
		c-0.119,1.485-0.239,2.974-0.358,4.462c0.76,0.063,1.518,0.131,2.276,0.205c-0.024,0.256-0.053,0.512-0.077,0.768
		C31.995,9.967,30.981,9.877,29.972,9.807"/>
	<path clip-path="url(#SVGID_2_)" d="M33.782,10.15c0.187-1.742,0.374-3.48,0.562-5.219c0.271,0.028,0.539,0.061,0.807,0.088
		c-0.171,1.486-0.339,2.965-0.509,4.449c0.755,0.088,1.513,0.18,2.266,0.284c-0.032,0.255-0.068,0.511-0.101,0.763
		C35.801,10.381,34.792,10.258,33.782,10.15"/>
	<path clip-path="url(#SVGID_2_)" d="M40.994,5.834c0.376,0.062,0.72,0.191,1.025,0.385c0.309,0.192,0.562,0.429,0.765,0.707
		c0.204,0.281,0.344,0.591,0.427,0.927c0.08,0.34,0.085,0.688,0.018,1.045s-0.202,0.678-0.396,0.965
		c-0.199,0.287-0.438,0.524-0.719,0.717c-0.281,0.189-0.589,0.324-0.931,0.404c-0.341,0.076-0.69,0.088-1.051,0.028
		c-0.36-0.062-0.688-0.183-0.984-0.37c-0.298-0.184-0.547-0.41-0.751-0.682c-0.203-0.27-0.353-0.576-0.448-0.907
		c-0.096-0.336-0.118-0.687-0.066-1.043c0.049-0.362,0.168-0.688,0.357-0.983c0.187-0.293,0.424-0.539,0.705-0.74
		c0.282-0.197,0.6-0.338,0.951-0.42C40.248,5.781,40.613,5.773,40.994,5.834 M40.272,10.158c0.242,0.041,0.476,0.037,0.707-0.018
		s0.44-0.145,0.63-0.271c0.19-0.127,0.35-0.289,0.479-0.48c0.132-0.195,0.221-0.412,0.265-0.654c0.044-0.24,0.039-0.474-0.016-0.699
		c-0.059-0.227-0.154-0.436-0.29-0.623c-0.138-0.188-0.309-0.344-0.515-0.473c-0.206-0.127-0.432-0.215-0.682-0.254
		c-0.253-0.043-0.498-0.037-0.734,0.018c-0.237,0.059-0.448,0.15-0.639,0.285c-0.19,0.133-0.347,0.297-0.474,0.49
		c-0.126,0.198-0.205,0.418-0.242,0.66c-0.038,0.243-0.024,0.477,0.037,0.702c0.06,0.227,0.162,0.43,0.3,0.611
		c0.137,0.182,0.305,0.334,0.506,0.459C39.805,10.035,40.027,10.121,40.272,10.158"/>
	<path clip-path="url(#SVGID_2_)" d="M10.174,1.146c0.322-0.061,0.646-0.121,0.969-0.177c0.003,0.014,0.005,0.028,0.008,0.039
		c-0.09,0.017-0.182,0.033-0.272,0.049c0.114,0.645,0.231,1.288,0.346,1.932c0.086-0.016,0.173-0.034,0.261-0.047
		c0.002,0.013,0.006,0.025,0.008,0.041c-0.313,0.053-0.627,0.111-0.938,0.172c-0.002-0.014-0.005-0.028-0.008-0.042
		c0.089-0.017,0.176-0.033,0.264-0.05c-0.121-0.641-0.239-1.284-0.36-1.928c-0.092,0.016-0.181,0.032-0.27,0.052
		C10.179,1.172,10.177,1.16,10.174,1.146"/>
	<path clip-path="url(#SVGID_2_)" d="M12.091,0.854c-0.035,0.006-0.071,0.012-0.107,0.017c-0.291,0.047-0.437,0.165-0.484,0.572
		c-0.013,0-0.027,0.003-0.039,0.006c-0.029-0.173-0.059-0.347-0.087-0.518c0.615-0.104,1.233-0.2,1.852-0.286
		c0.023,0.171,0.049,0.347,0.073,0.518c-0.014,0.002-0.027,0.005-0.038,0.005c-0.171-0.369-0.344-0.441-0.636-0.396
		c-0.036,0.006-0.071,0.011-0.106,0.017c0.098,0.643,0.194,1.293,0.293,1.936c0.089-0.012,0.176-0.025,0.264-0.039
		c0,0.014,0.003,0.027,0.005,0.042c-0.313,0.046-0.627,0.093-0.94,0.146c-0.002-0.014-0.005-0.028-0.005-0.04
		c0.085-0.015,0.173-0.029,0.262-0.043C12.295,2.145,12.194,1.499,12.091,0.854"/>
	<path clip-path="url(#SVGID_2_)" d="M13.325,2.652c0.079-0.013,0.162-0.023,0.242-0.035c0.189-0.727,0.391-1.453,0.6-2.179
		c0.027-0.003,0.055-0.005,0.08-0.009c0.395,0.651,0.78,1.305,1.157,1.965c0.082-0.011,0.165-0.019,0.248-0.027
		c0,0.014,0,0.027,0.003,0.038c-0.321,0.033-0.644,0.071-0.964,0.108c-0.002-0.014-0.005-0.025-0.005-0.039
		c0.088-0.011,0.177-0.022,0.268-0.031c-0.141-0.241-0.283-0.484-0.424-0.726c-0.234,0.028-0.465,0.058-0.699,0.088
		c-0.075,0.271-0.146,0.537-0.218,0.804c0.086-0.012,0.171-0.022,0.256-0.033c0,0.014,0.003,0.027,0.007,0.039
		c-0.182,0.027-0.364,0.049-0.545,0.076C13.328,2.677,13.328,2.664,13.325,2.652 M14.066,0.947c-0.077,0.27-0.151,0.545-0.226,0.816
		c0.221-0.029,0.447-0.056,0.668-0.084C14.363,1.434,14.215,1.189,14.066,0.947"/>
	<path clip-path="url(#SVGID_2_)" d="M15.506,0.369c0.325-0.033,0.652-0.062,0.977-0.09c0.002,0.014,0.002,0.024,0.004,0.041
		c-0.092,0.005-0.183,0.014-0.274,0.022c0.058,0.649,0.118,1.304,0.176,1.953c0.156-0.014,0.316-0.028,0.473-0.038
		c0.25-0.023,0.52-0.204,0.588-0.656c0.014-0.002,0.026-0.002,0.039-0.005c0.014,0.218,0.031,0.432,0.044,0.65
		C16.925,2.287,16.317,2.34,15.712,2.4c-0.003-0.011-0.003-0.027-0.005-0.039c0.088-0.011,0.175-0.016,0.264-0.027
		c-0.062-0.65-0.124-1.302-0.188-1.953C15.692,0.391,15.6,0.4,15.509,0.408C15.509,0.397,15.506,0.384,15.506,0.369"/>
	<path clip-path="url(#SVGID_2_)" d="M17.632,0.19c0.325-0.022,0.652-0.041,0.98-0.058v0.041c-0.091,0.003-0.181,0.008-0.273,0.014
		c0.036,0.656,0.071,1.305,0.107,1.959c0.089-0.005,0.177-0.011,0.264-0.014c0.004,0.014,0.004,0.026,0.004,0.041
		c-0.317,0.018-0.631,0.034-0.946,0.056c0-0.014-0.003-0.027-0.003-0.042c0.088-0.005,0.176-0.01,0.263-0.016
		c-0.041-0.652-0.079-1.306-0.12-1.958c-0.091,0.007-0.181,0.013-0.273,0.019C17.632,0.217,17.632,0.205,17.632,0.19"/>
	<path clip-path="url(#SVGID_2_)" d="M18.75,2.131c0.083-0.004,0.163-0.006,0.245-0.012c0.256-0.707,0.52-1.412,0.795-2.113
		C19.814,0.004,19.842,0.004,19.87,0c0.333,0.688,0.657,1.374,0.97,2.064c0.083,0,0.167-0.002,0.249-0.005V2.1
		c-0.322,0.004-0.643,0.007-0.967,0.019V2.078c0.087-0.002,0.178-0.002,0.266-0.006c-0.116-0.256-0.234-0.509-0.354-0.761
		c-0.236,0.007-0.468,0.016-0.703,0.024c-0.099,0.262-0.196,0.521-0.288,0.784c0.085-0.006,0.17-0.012,0.255-0.013
		c0,0.013,0.003,0.027,0.003,0.041c-0.184,0.005-0.366,0.016-0.548,0.025C18.75,2.158,18.75,2.145,18.75,2.131 M19.643,0.502
		c-0.101,0.264-0.2,0.527-0.299,0.791c0.223-0.008,0.449-0.016,0.672-0.021C19.894,1.014,19.77,0.758,19.643,0.502"/>
	<path clip-path="url(#SVGID_2_)" d="M21.091,0.059c0.234-0.003,0.468-0.003,0.703-0.003c0.332,0.454,0.653,0.913,0.97,1.373h0.005
		c0.01-0.442,0.017-0.883,0.022-1.323C22.699,0.103,22.61,0.1,22.519,0.1V0.061c0.198,0,0.396,0.006,0.598,0.012
		c-0.003,0.011-0.003,0.025-0.003,0.039c-0.092-0.003-0.182-0.006-0.273-0.006c-0.014,0.666-0.022,1.334-0.035,2.002
		c-0.026-0.002-0.052-0.002-0.08-0.002c-0.421-0.619-0.858-1.236-1.307-1.846h-0.006c0.004,0.6,0.006,1.199,0.012,1.799h0.265v0.039
		c-0.193,0-0.386,0-0.577,0.002V2.059h0.266c-0.006-0.654-0.009-1.31-0.011-1.964c-0.094,0.003-0.185,0.003-0.275,0.005V0.059z"/>
	<path clip-path="url(#SVGID_2_)" d="M24.409,0.154c-0.092-0.005-0.183-0.008-0.273-0.01V0.103c0.588,0.023,1.176,0.052,1.761,0.094
		c-0.01,0.163-0.021,0.327-0.032,0.489c-0.014-0.002-0.025-0.002-0.039-0.002c-0.093-0.281-0.215-0.468-0.536-0.484
		c-0.147-0.012-0.3-0.018-0.448-0.025c-0.017,0.305-0.03,0.614-0.047,0.921c0.055,0.003,0.11,0.006,0.165,0.012
		c0.286,0.014,0.396-0.148,0.468-0.402h0.038c-0.019,0.297-0.035,0.594-0.055,0.891c-0.011,0-0.024,0-0.038-0.003
		c-0.039-0.224-0.113-0.431-0.383-0.448c-0.066-0.003-0.132-0.005-0.198-0.009c-0.017,0.334-0.032,0.664-0.05,0.997
		c0.089,0.002,0.179,0.008,0.268,0.013v0.041c-0.319-0.018-0.636-0.032-0.951-0.046c0-0.01,0-0.024,0.002-0.038
		c0.088,0.002,0.176,0.004,0.264,0.01C24.351,1.459,24.382,0.806,24.409,0.154"/>
	<path clip-path="url(#SVGID_2_)" d="M27.311,0.262c0.551,0.05,1.068,0.521,0.997,1.17c-0.066,0.572-0.62,1.007-1.188,0.951
		c-0.564-0.049-1.043-0.553-1.002-1.141C26.161,0.596,26.797,0.215,27.311,0.262 M27.121,2.345c0.564,0.052,0.652-0.386,0.71-0.98
		c0.056-0.533,0.074-1.005-0.525-1.062c-0.555-0.049-0.663,0.375-0.712,0.975C26.529,2.072,26.69,2.307,27.121,2.345"/>
	<path clip-path="url(#SVGID_2_)" d="M29.784,0.542c0.551,0.07,1.049,0.56,0.949,1.204c-0.088,0.567-0.659,0.979-1.227,0.905
		c-0.563-0.074-1.021-0.598-0.955-1.184C28.62,0.824,29.272,0.468,29.784,0.542 M29.512,2.612c0.563,0.073,0.666-0.36,0.751-0.952
		c0.075-0.531,0.113-1.002-0.482-1.082c-0.557-0.071-0.681,0.347-0.755,0.947C28.932,2.314,29.084,2.553,29.512,2.612"/>
	<path clip-path="url(#SVGID_2_)" d="M31.369,0.854c-0.091-0.01-0.181-0.027-0.272-0.041c0.003-0.014,0.006-0.024,0.006-0.041
		c0.091,0.017,0.182,0.03,0.272,0.044c0.102,0.017,0.201,0.03,0.303,0.044c0.102,0.016,0.2,0.029,0.304,0.047
		c0.53,0.088,1.26,0.415,1.101,1.243c-0.161,0.823-0.941,0.872-1.379,0.798c-0.108-0.02-0.218-0.041-0.322-0.058
		c-0.107-0.019-0.217-0.038-0.325-0.057c-0.088-0.014-0.176-0.028-0.264-0.041c0.002-0.012,0.006-0.028,0.008-0.039
		c0.088,0.013,0.173,0.027,0.263,0.041C31.164,2.146,31.268,1.503,31.369,0.854 M31.477,2.859c0.053,0.014,0.1,0.025,0.148,0.035
		c0.738,0.127,0.908-0.431,0.977-0.805c0.112-0.605,0.064-1.027-0.62-1.142c-0.076-0.014-0.145-0.022-0.187-0.022
		C31.691,1.568,31.585,2.213,31.477,2.859"/>
	<path clip-path="url(#SVGID_2_)" d="M17.888,15.605c-0.107,0.107-0.256,0.162-0.443,0.162h-0.594v-1.773h0.594
		c0.187,0,0.336,0.055,0.443,0.162c0.181,0.178,0.174,0.459,0.174,0.699C18.062,15.094,18.069,15.428,17.888,15.605 M17.795,14.25
		c-0.103-0.107-0.239-0.139-0.382-0.139h-0.43v1.539h0.43c0.143,0,0.279-0.029,0.382-0.139c0.141-0.148,0.132-0.455,0.132-0.656
		C17.927,14.656,17.936,14.398,17.795,14.25"/>
	<path clip-path="url(#SVGID_2_)" d="M19.404,15.336h-0.828l-0.154,0.432h-0.144l0.653-1.773h0.121l0.652,1.773h-0.147
		L19.404,15.336z M18.62,15.219h0.743l-0.372-1.045L18.62,15.219z"/>
	<polygon clip-path="url(#SVGID_2_)" points="20.016,13.994 20.15,13.994 20.15,15.65 21.094,15.65 21.094,15.768 20.016,15.768 	
		"/>
	<polygon clip-path="url(#SVGID_2_)" points="22.455,14.137 22.134,14.422 22.134,14.27 22.455,13.994 22.582,13.994 22.582,15.768 
		22.455,15.768 	"/>
	<path clip-path="url(#SVGID_2_)" d="M24.09,14.85l-0.457,0.918h-0.127l0.407-0.82c-0.06,0.027-0.129,0.041-0.209,0.041
		c-0.291,0-0.456-0.219-0.456-0.494c0-0.283,0.17-0.516,0.47-0.516c0.297,0,0.472,0.209,0.472,0.5
		C24.189,14.594,24.161,14.697,24.09,14.85 M23.718,14.09c-0.209,0-0.344,0.154-0.344,0.395c0,0.211,0.116,0.393,0.344,0.393
		c0.209,0,0.345-0.154,0.345-0.393C24.063,14.244,23.927,14.09,23.718,14.09"/>
	<path clip-path="url(#SVGID_2_)" d="M25.005,15.781c-0.285,0-0.505-0.207-0.505-0.492c0-0.205,0.113-0.354,0.281-0.441
		c-0.161-0.09-0.243-0.223-0.243-0.403c0-0.261,0.189-0.466,0.467-0.466c0.278,0,0.469,0.205,0.469,0.466
		c0,0.181-0.08,0.313-0.242,0.403c0.17,0.088,0.28,0.236,0.28,0.441C25.512,15.574,25.292,15.781,25.005,15.781 M25.005,14.908
		c-0.214,0-0.378,0.164-0.378,0.381c0,0.221,0.164,0.383,0.378,0.383c0.216,0,0.381-0.162,0.381-0.383
		C25.386,15.072,25.221,14.908,25.005,14.908 M25.005,14.09c-0.2,0-0.341,0.146-0.341,0.354c0,0.204,0.141,0.351,0.341,0.351
		c0.202,0,0.343-0.146,0.343-0.351C25.348,14.236,25.207,14.09,25.005,14.09"/>
	<polygon clip-path="url(#SVGID_2_)" points="26.299,14.137 25.978,14.422 25.978,14.27 26.299,13.994 26.426,13.994 26.426,15.768 
		26.299,15.768 	"/>
	<polygon clip-path="url(#SVGID_2_)" points="32.783,14.879 28.53,14.701 28.12,14.879 28.53,15.061 	"/>
	<polygon clip-path="url(#SVGID_2_)" points="10.492,14.883 14.746,15.061 15.156,14.883 14.746,14.701 	"/>
</g>
</svg>
