<?xml version="1.0" encoding="utf-8"?>
<!-- Generator: Adobe Illustrator 16.0.0, SVG Export Plug-In . SVG Version: 6.00 Build 0)  -->
<!DOCTYPE svg PUBLIC "-//W3C//DTD SVG 1.1//EN" "http://www.w3.org/Graphics/SVG/1.1/DTD/svg11.dtd">
<svg version="1.1" id="Layer_1" xmlns="http://www.w3.org/2000/svg" xmlns:xlink="http://www.w3.org/1999/xlink" x="0px" y="0px"
	 width="143px" height="56px" viewBox="0 0 40.592 16.611" enable-background="new 0 0 40.592 16.611" xml:space="preserve">
<g>
	<defs>
		<rect id="SVGID_1_" y="0" width="40.592" height="16.611"/>
	</defs>
	<clipPath id="SVGID_2_">
		<use xlink:href="#SVGID_1_"  overflow="visible"/>
	</clipPath>
	<path clip-path="url(#SVGID_2_)" d="M2.445,8.293H1.966V8.223h0.782c0.145,0,0.286-0.005,0.431-0.011
		c0.144,0,0.289-0.005,0.43-0.005c0.542,0,1.265,0.196,1.265,0.884c0,0.554-0.553,0.766-1.018,0.802v0.026
		c0.672,0.12,1.076,0.191,1.134,0.937c0.065,0.864,0.061,1.007,0.305,1.007c0.138,0,0.22-0.102,0.289-0.17l0.052,0.049
		c-0.139,0.139-0.228,0.242-0.605,0.242c-0.762,0-0.786-0.549-0.803-0.911c-0.025-0.563-0.053-1.106-0.694-1.106H3.193v1.87h0.476
		v0.07H1.966v-0.07h0.479V8.293z M3.193,9.893h0.212c0.622,0,0.674-0.367,0.674-0.744c0-0.605-0.14-0.869-0.657-0.869
		c-0.078,0-0.152,0.009-0.229,0.014V9.893z"/>
	<path clip-path="url(#SVGID_2_)" d="M5.715,8.223h3.091v0.885H8.74C8.668,8.879,8.446,8.294,7.761,8.294H6.94v1.599h0.291
		c0.504,0,0.681-0.305,0.781-0.771h0.065v1.609H8.012c-0.095-0.403-0.251-0.766-0.724-0.766H6.94v1.87h0.848
		c0.636,0,1.025-0.463,1.164-1.063h0.069v1.133H5.715v-0.07H6.19V8.294H5.715V8.223z"/>
	<path clip-path="url(#SVGID_2_)" d="M9.582,10.757h0.08c0.03,0.167,0.134,0.563,0.418,0.842c0.316,0.313,0.594,0.313,0.801,0.313
		c0.725,0,0.911-0.533,0.911-0.804c0-1.028-2.13-0.418-2.13-1.903c0-0.548,0.517-1.066,1.246-1.066c0.454,0,0.671,0.193,0.837,0.193
		c0.092,0,0.114-0.026,0.145-0.109h0.084v0.982h-0.068c-0.161-0.476-0.332-0.993-1.004-0.993c-0.547,0-0.852,0.34-0.852,0.646
		c0,0.957,2.217,0.497,2.217,1.868c0,0.677-0.583,1.258-1.427,1.258c-0.424,0-0.872-0.199-1.013-0.199
		c-0.094,0-0.123,0.028-0.159,0.121H9.582V10.757z"/>
	<path clip-path="url(#SVGID_2_)" d="M14.058,8.294h-0.187c-0.511,0-0.79,0.171-0.992,0.875h-0.067V8.223h3.245v0.946h-0.069
		c-0.201-0.704-0.48-0.875-0.993-0.875H14.81v3.541h0.476v0.072h-1.703v-0.072h0.475V8.294z"/>
	<path clip-path="url(#SVGID_2_)" d="M15.734,11.836h0.439l1.544-3.759h0.138l1.631,3.759h0.443v0.071h-1.735v-0.071h0.478
		l-0.6-1.389h-1.24l-0.576,1.389h0.462v0.071h-0.984V11.836z M17.437,8.962l-0.58,1.412h1.19L17.437,8.962z"/>
	<path clip-path="url(#SVGID_2_)" d="M19.822,8.223h1.707v0.071h-0.475v2.324c0,0.641,0.066,1.294,0.837,1.294
		c1.111,0,1.111-0.886,1.111-1.186V8.294h-0.47V8.223h1.033v0.071h-0.481v2.427c0,0.337,0,1.263-1.24,1.263
		c-1.352,0-1.541-0.656-1.541-1.272V8.294h-0.481V8.223z"/>
	<path clip-path="url(#SVGID_2_)" d="M24.34,8.293h-0.476V8.223h0.778c0.146,0,0.286-0.005,0.432-0.011
		c0.143,0,0.289-0.005,0.43-0.005c0.541,0,1.265,0.196,1.265,0.884c0,0.554-0.552,0.766-1.018,0.802v0.026
		c0.672,0.12,1.076,0.191,1.134,0.937c0.065,0.864,0.061,1.007,0.305,1.007c0.139,0,0.22-0.102,0.289-0.17l0.053,0.049
		c-0.141,0.139-0.228,0.242-0.605,0.242c-0.763,0-0.786-0.549-0.804-0.911c-0.023-0.563-0.051-1.106-0.693-1.106h-0.341v1.87h0.477
		v0.07h-1.7v-0.07h0.476V8.293z M25.088,9.893H25.3c0.622,0,0.675-0.367,0.675-0.744c0-0.605-0.141-0.869-0.657-0.869
		c-0.077,0-0.151,0.009-0.229,0.014V9.893z"/>
	<path clip-path="url(#SVGID_2_)" d="M27.283,11.836h0.438l1.544-3.759h0.137l1.633,3.759h0.445v0.071H29.74v-0.071h0.481
		l-0.603-1.389H28.38l-0.574,1.389h0.46v0.071h-0.982V11.836z M28.984,8.962l-0.578,1.412h1.188L28.984,8.962z"/>
	<polygon clip-path="url(#SVGID_2_)" points="31.521,8.223 32.739,8.223 34.464,10.685 34.473,10.685 34.473,8.294 33.997,8.294 
		33.997,8.223 35.031,8.223 35.031,8.294 34.555,8.294 34.555,11.906 34.419,11.906 32.088,8.59 32.079,8.59 32.079,11.836 
		32.555,11.836 32.555,11.906 31.521,11.906 31.521,11.836 31.997,11.836 31.997,8.294 31.521,8.294 	"/>
	<path clip-path="url(#SVGID_2_)" d="M36.627,8.294H36.44c-0.513,0-0.792,0.171-0.993,0.875h-0.069V8.223h3.243v0.946h-0.065
		c-0.2-0.704-0.481-0.875-0.992-0.875h-0.188v3.541h0.477v0.072H36.15v-0.072h0.477V8.294z"/>
	<path clip-path="url(#SVGID_2_)" d="M39.466,14.168H1.125v-0.049c0-0.595-0.484-1.079-1.079-1.079H0v-6.02h0.046
		c0.595,0,1.079-0.484,1.079-1.078V5.895h38.341v0.048c0,0.594,0.485,1.078,1.079,1.078h0.047v6.02h-0.047
		c-0.594,0-1.079,0.484-1.079,1.079V14.168z M1.222,14.069H39.37c0.024-0.608,0.517-1.1,1.125-1.122V7.115
		C39.887,7.09,39.395,6.599,39.37,5.99H1.222c-0.025,0.609-0.518,1.1-1.127,1.125v5.832C0.704,12.97,1.197,13.461,1.222,14.069"/>
	<path clip-path="url(#SVGID_2_)" d="M16.284,16.271h0.021c0.009,0.046,0.037,0.157,0.117,0.236
		c0.088,0.085,0.165,0.085,0.222,0.085c0.201,0,0.253-0.148,0.253-0.223c0-0.285-0.592-0.115-0.592-0.53
		c0-0.152,0.144-0.295,0.348-0.295c0.126,0,0.187,0.05,0.231,0.05c0.027,0,0.033-0.006,0.042-0.028h0.021v0.273H16.93
		c-0.046-0.133-0.093-0.278-0.28-0.278c-0.151,0-0.237,0.096-0.237,0.181c0,0.268,0.616,0.139,0.616,0.521
		c0,0.19-0.162,0.35-0.396,0.35c-0.118,0-0.244-0.055-0.284-0.055c-0.023,0-0.033,0.008-0.044,0.033h-0.021V16.271z"/>
	<polygon clip-path="url(#SVGID_2_)" points="17.181,15.565 17.655,15.565 17.655,15.585 17.522,15.585 17.522,16.569 
		17.655,16.569 17.655,16.59 17.181,16.59 17.181,16.569 17.313,16.569 17.313,15.585 17.181,15.585 	"/>
	<polygon clip-path="url(#SVGID_2_)" points="17.762,15.565 18.1,15.565 18.578,16.251 18.583,16.251 18.583,15.585 18.45,15.585 
		18.45,15.565 18.739,15.565 18.739,15.585 18.607,15.585 18.607,16.59 18.568,16.59 17.917,15.668 17.916,15.668 17.916,16.569 
		18.047,16.569 18.047,16.59 17.762,16.59 17.762,16.569 17.895,16.569 17.895,15.585 17.762,15.585 	"/>
	<path clip-path="url(#SVGID_2_)" d="M19.724,15.857h-0.017c-0.044-0.126-0.107-0.297-0.313-0.297c-0.28,0-0.306,0.22-0.306,0.522
		c0,0.396,0.088,0.509,0.306,0.509c0.171,0,0.283-0.15,0.316-0.306h0.025v0.304h-0.025c-0.009-0.022-0.019-0.028-0.047-0.028
		c-0.044,0-0.149,0.05-0.272,0.05c-0.284,0-0.54-0.234-0.54-0.531c0-0.323,0.295-0.537,0.54-0.537c0.118,0,0.215,0.051,0.267,0.051
		c0.025,0,0.039-0.003,0.043-0.028h0.023V15.857z"/>
	<path clip-path="url(#SVGID_2_)" d="M19.871,15.565h0.861v0.246h-0.019c-0.019-0.064-0.083-0.227-0.272-0.227h-0.228v0.443h0.078
		c0.141,0,0.19-0.083,0.218-0.212h0.02v0.448h-0.02c-0.024-0.115-0.068-0.215-0.199-0.215h-0.097v0.52h0.235
		c0.177,0,0.283-0.128,0.322-0.294h0.02v0.314h-0.92v-0.021h0.133v-0.984h-0.133V15.565z"/>
	<path clip-path="url(#SVGID_2_)" d="M21.905,16.59h-0.443v-0.021h0.135v-0.896c-0.063,0.035-0.127,0.071-0.187,0.106l-0.012-0.019
		c0.138-0.08,0.204-0.113,0.316-0.219h0.059v1.026h0.132V16.59z"/>
	<path clip-path="url(#SVGID_2_)" d="M22.437,15.544c0.206,0,0.366,0.162,0.366,0.451c-0.004,0.333-0.124,0.616-0.419,0.616
		c-0.198,0-0.236-0.1-0.236-0.154c0-0.061,0.036-0.09,0.093-0.09c0.03,0,0.075,0.008,0.075,0.057c0,0.028-0.018,0.078-0.018,0.099
		c0,0.067,0.056,0.067,0.091,0.067c0.18,0,0.218-0.21,0.218-0.49h-0.002c-0.025,0.035-0.066,0.095-0.182,0.095
		c-0.177,0-0.331-0.145-0.331-0.326C22.092,15.689,22.262,15.544,22.437,15.544 M22.43,16.171c0.086,0,0.152-0.049,0.171-0.129
		c0.004-0.02,0.006-0.066,0.006-0.113c0-0.352-0.096-0.368-0.163-0.368c-0.078,0-0.156,0.044-0.156,0.335
		C22.287,16.094,22.334,16.171,22.43,16.171"/>
	<path clip-path="url(#SVGID_2_)" d="M23.144,16.074c-0.103-0.057-0.188-0.109-0.188-0.256c0-0.164,0.144-0.274,0.319-0.274
		c0.148,0,0.272,0.094,0.272,0.215c0,0.093-0.061,0.165-0.192,0.225c0.153,0.072,0.235,0.16,0.235,0.292
		c0,0.149-0.137,0.336-0.349,0.336c-0.176,0-0.327-0.115-0.327-0.267C22.915,16.195,23.02,16.139,23.144,16.074 M23.165,16.084
		c-0.088,0.055-0.094,0.176-0.094,0.253c0,0.192,0.072,0.253,0.171,0.253c0.16,0,0.201-0.127,0.201-0.215
		c0-0.121-0.056-0.17-0.154-0.226L23.165,16.084z M23.335,15.976c0.027-0.024,0.062-0.052,0.062-0.214
		c0-0.053-0.003-0.201-0.138-0.201c-0.099,0-0.165,0.079-0.165,0.176C23.094,15.862,23.189,15.909,23.335,15.976"/>
	<path clip-path="url(#SVGID_2_)" d="M24.308,16.59h-0.443v-0.021h0.135v-0.896c-0.063,0.035-0.127,0.071-0.188,0.106l-0.014-0.019
		c0.141-0.08,0.207-0.113,0.319-0.219h0.059v1.026h0.132V16.59z"/>
	<rect x="25.126" y="16.054" clip-path="url(#SVGID_2_)" width="5.388" height="0.047"/>
	<rect x="10.077" y="16.054" clip-path="url(#SVGID_2_)" width="5.388" height="0.047"/>
	<path clip-path="url(#SVGID_2_)" d="M11.181,0.94c0.17-0.034,0.341-0.069,0.511-0.102c0.196,1.002,0.391,2.005,0.587,3.008
		c-0.159,0.03-0.32,0.061-0.477,0.095C11.593,2.941,11.387,1.94,11.181,0.94"/>
	<path clip-path="url(#SVGID_2_)" d="M11.915,0.794c0.528-0.101,1.059-0.191,1.59-0.272c0.022,0.144,0.044,0.288,0.066,0.433
		c-0.179,0.026-0.357,0.054-0.533,0.084c0.143,0.863,0.285,1.728,0.429,2.592c-0.16,0.026-0.32,0.053-0.479,0.082
		c-0.154-0.862-0.305-1.725-0.46-2.586c-0.176,0.031-0.354,0.063-0.53,0.098C11.97,1.082,11.942,0.938,11.915,0.794"/>
	<path clip-path="url(#SVGID_2_)" d="M15.568,3.336c-0.161,0.02-0.325,0.039-0.486,0.059c-0.05-0.179-0.101-0.359-0.152-0.54
		c-0.2,0.025-0.399,0.053-0.599,0.079c-0.002,0.189-0.002,0.376-0.006,0.563c-0.145,0.022-0.295,0.044-0.44,0.066
		c0.006-1.034,0.025-2.07,0.055-3.106c0.25-0.036,0.503-0.07,0.753-0.102C14.999,1.347,15.291,2.34,15.568,3.336 M14.336,2.515
		c0.157-0.023,0.313-0.044,0.474-0.064c-0.147-0.502-0.294-1.005-0.446-1.504C14.353,1.47,14.342,1.992,14.336,2.515"/>
	<path clip-path="url(#SVGID_2_)" d="M15.462,0.266c0.173-0.02,0.344-0.037,0.517-0.054c0.085,0.871,0.17,1.743,0.253,2.614
		c0.269-0.026,0.537-0.049,0.803-0.07c0.012,0.146,0.026,0.291,0.036,0.436c-0.426,0.034-0.853,0.073-1.279,0.119
		C15.682,2.296,15.571,1.281,15.462,0.266"/>
	<path clip-path="url(#SVGID_2_)" d="M17.057,0.12c0.174-0.012,0.348-0.023,0.52-0.034c0.062,1.019,0.125,2.038,0.187,3.058
		c-0.161,0.009-0.321,0.02-0.483,0.033C17.206,2.157,17.132,1.14,17.057,0.12"/>
	<path clip-path="url(#SVGID_2_)" d="M19.685,3.069c-0.165,0.003-0.328,0.005-0.49,0.011c-0.033-0.184-0.066-0.368-0.099-0.554
		c-0.201,0.007-0.402,0.014-0.603,0.023c-0.021,0.186-0.041,0.372-0.06,0.559c-0.149,0.007-0.297,0.014-0.443,0.022
		c0.105-1.029,0.225-2.057,0.355-3.085c0.253-0.012,0.506-0.021,0.759-0.028C19.311,1.033,19.503,2.051,19.685,3.069 M18.537,2.131
		c0.159-0.007,0.319-0.014,0.48-0.018C18.92,1.6,18.82,1.086,18.719,0.572C18.655,1.091,18.596,1.611,18.537,2.131"/>
	<path clip-path="url(#SVGID_2_)" d="M20.339,0.845v2.219c-0.145,0-0.291,0.001-0.434,0.003c-0.011-1.022-0.022-2.043-0.034-3.065
		C20.087,0,20.304-0.001,20.521,0c0.177,0.613,0.348,1.225,0.508,1.84c0.01-0.613,0.019-1.224,0.026-1.835
		c0.156,0.002,0.311,0.007,0.465,0.009c-0.027,1.022-0.052,2.043-0.08,3.064c-0.163-0.004-0.329-0.007-0.496-0.01
		C20.752,2.325,20.551,1.583,20.339,0.845"/>
	<path clip-path="url(#SVGID_2_)" d="M23.061,1.445c0.215,0.012,0.432,0.028,0.649,0.045c-0.014,0.146-0.025,0.291-0.036,0.435
		c-0.212-0.017-0.426-0.03-0.641-0.044c-0.027,0.421-0.053,0.842-0.081,1.263c-0.159-0.01-0.32-0.019-0.48-0.028
		c0.05-1.019,0.102-2.04,0.152-3.059c0.458,0.022,0.915,0.053,1.371,0.089c-0.011,0.147-0.021,0.291-0.035,0.437
		c-0.28-0.022-0.562-0.043-0.844-0.061C23.096,0.83,23.077,1.137,23.061,1.445"/>
	<path clip-path="url(#SVGID_2_)" d="M24.142,0.896c0.039-0.488,0.341-0.746,0.853-0.693c0.51,0.052,0.752,0.366,0.694,0.853
		c-0.063,0.526-0.13,1.053-0.193,1.582c-0.058,0.486-0.35,0.732-0.822,0.682c-0.474-0.048-0.707-0.347-0.665-0.837
		C24.051,1.955,24.094,1.426,24.142,0.896 M24.494,2.559c-0.022,0.218,0.068,0.31,0.223,0.326c0.156,0.015,0.261-0.056,0.286-0.273
		c0.058-0.55,0.119-1.097,0.179-1.646c0.025-0.218-0.069-0.311-0.233-0.328c-0.163-0.017-0.272,0.056-0.295,0.274
		C24.602,1.461,24.546,2.01,24.494,2.559"/>
	<path clip-path="url(#SVGID_2_)" d="M25.975,1.09c0.061-0.486,0.37-0.731,0.88-0.658c0.506,0.075,0.736,0.398,0.66,0.882
		c-0.087,0.524-0.173,1.048-0.258,1.573c-0.08,0.484-0.38,0.716-0.851,0.647c-0.471-0.067-0.693-0.376-0.633-0.864
		C25.839,2.144,25.906,1.618,25.975,1.09 M26.258,2.767c-0.03,0.216,0.056,0.312,0.212,0.334c0.153,0.022,0.261-0.045,0.294-0.261
		c0.083-0.545,0.165-1.091,0.247-1.635c0.033-0.217-0.057-0.316-0.22-0.339c-0.162-0.023-0.275,0.045-0.305,0.261
		C26.409,1.674,26.334,2.221,26.258,2.767"/>
	<path clip-path="url(#SVGID_2_)" d="M27.963,0.644c0.273,0.046,0.543,0.094,0.812,0.145c0.515,0.098,0.71,0.414,0.611,0.893
		c-0.104,0.506-0.209,1.012-0.313,1.518c-0.102,0.48-0.389,0.692-0.867,0.601c-0.25-0.049-0.503-0.094-0.756-0.137
		C27.619,2.657,27.793,1.649,27.963,0.644 M28.397,1.165c-0.129,0.718-0.261,1.435-0.39,2.152c0.09,0.017,0.181,0.035,0.271,0.052
		c0.152,0.029,0.259-0.031,0.303-0.246c0.102-0.521,0.204-1.041,0.306-1.563c0.041-0.215-0.041-0.311-0.204-0.341
		C28.591,1.201,28.494,1.183,28.397,1.165"/>
</g>
</svg>
