<?xml version="1.0" encoding="utf-8"?>
<!-- Generator: Adobe Illustrator 16.0.0, SVG Export Plug-In . SVG Version: 6.00 Build 0)  -->
<!DOCTYPE svg PUBLIC "-//W3C//DTD SVG 1.1//EN" "http://www.w3.org/Graphics/SVG/1.1/DTD/svg11.dtd">
<svg version="1.1" id="Layer_1" xmlns="http://www.w3.org/2000/svg" xmlns:xlink="http://www.w3.org/1999/xlink" x="0px" y="0px"
	 width="126px" height="72px" viewBox="0 0 41.391 24.432" enable-background="new 0 0 41.391 24.432" xml:space="preserve">
<polygon points="3.616,12.227 3.616,12.321 4.223,12.559 2.911,17.388 1.409,12.463 1.973,12.321 1.973,12.227 0,12.227 0,12.321 
	0.564,12.463 2.534,18.937 2.677,18.937 4.414,12.559 5.021,12.321 5.021,12.227 "/>
<path d="M7.321,16.873H5.398l-0.47,1.598l0.611,0.232v0.094H4.13v-0.094l0.611-0.232l1.829-6.384h0.142l1.971,6.476l0.562,0.141
	v0.094h-1.97v-0.094l0.564-0.141L7.321,16.873z M5.445,16.695h1.821l-0.941-3.104L5.445,16.695z"/>
<g>
	<defs>
		<rect id="SVGID_1_" y="0" width="41.391" height="24.432"/>
	</defs>
	<clipPath id="SVGID_2_">
		<use xlink:href="#SVGID_1_"  overflow="visible"/>
	</clipPath>
	<path clip-path="url(#SVGID_2_)" d="M10.841,18.611h1.689c0-0.266,0.055-0.508,0.16-0.732c0.107-0.227,0.243-0.42,0.404-0.584
		h0.094c-0.013,0.082-0.023,0.168-0.027,0.256c-0.007,0.074-0.011,0.154-0.013,0.242c-0.005,0.088-0.007,0.173-0.007,0.254
		c0,0.119,0.002,0.225,0.007,0.314c0.002,0.092,0.006,0.172,0.013,0.24c0.004,0.074,0.014,0.141,0.027,0.195H9.482v-0.094
		l0.561-0.141v-6.1L9.482,12.32v-0.094h1.923v0.094l-0.564,0.143V18.611z"/>
	<path clip-path="url(#SVGID_2_)" d="M17.13,18.611c0-0.266,0.053-0.508,0.16-0.732c0.105-0.227,0.238-0.42,0.402-0.584h0.094
		c-0.011,0.082-0.02,0.168-0.028,0.256c-0.006,0.074-0.012,0.154-0.014,0.242c-0.004,0.088-0.006,0.173-0.006,0.254
		c0,0.119,0.002,0.225,0.006,0.314c0.002,0.092,0.008,0.172,0.014,0.24c0.008,0.074,0.017,0.141,0.028,0.195h-3.894v-0.094
		l0.564-0.141v-6.1l-0.564-0.143v-0.094h3.8c-0.011,0.059-0.023,0.123-0.028,0.199c-0.006,0.069-0.011,0.149-0.014,0.239
		c-0.002,0.092-0.005,0.195-0.005,0.313c0,0.09,0.003,0.176,0.005,0.26c0.003,0.086,0.008,0.164,0.014,0.24
		c0.005,0.088,0.017,0.174,0.028,0.254h-0.094c-0.162-0.164-0.298-0.359-0.402-0.582c-0.107-0.224-0.159-0.471-0.159-0.732h-1.783
		v2.816h0.892l0.421-0.846h0.092v1.877h-0.092l-0.421-0.846h-0.892v3.193H17.13z"/>
	<polygon clip-path="url(#SVGID_2_)" points="22.525,12.559 21.915,12.321 21.915,12.227 23.323,12.227 23.323,12.321 
		22.711,12.559 22.711,18.891 22.572,18.891 19.38,13.025 19.38,18.471 19.992,18.704 19.992,18.797 18.583,18.797 18.583,18.704 
		19.193,18.471 19.193,12.51 18.583,12.321 18.583,12.227 19.852,12.227 22.525,17.154 	"/>
	<path clip-path="url(#SVGID_2_)" d="M26.421,18.563l0.564,0.141v0.094H25.06v-0.094l0.563-0.141v-6.146h-0.984
		c0,0.261-0.056,0.507-0.159,0.732c-0.108,0.223-0.242,0.418-0.405,0.582H23.98c0.007-0.08,0.011-0.166,0.02-0.254
		c0.005-0.076,0.012-0.154,0.02-0.24c0.007-0.084,0.009-0.17,0.009-0.26c0-0.117-0.002-0.221-0.009-0.313
		c-0.008-0.09-0.015-0.17-0.02-0.238c-0.009-0.076-0.013-0.14-0.02-0.199h4.083c-0.014,0.059-0.021,0.123-0.027,0.199
		c-0.008,0.068-0.01,0.148-0.017,0.238c-0.002,0.092-0.002,0.195-0.002,0.313c0,0.09,0,0.176,0.002,0.26
		c0.007,0.086,0.009,0.164,0.017,0.24c0.006,0.088,0.014,0.174,0.027,0.254h-0.093c-0.166-0.164-0.298-0.359-0.405-0.582
		c-0.107-0.225-0.159-0.471-0.159-0.732h-0.985V18.563z"/>
	<polygon clip-path="url(#SVGID_2_)" points="30.127,18.563 30.691,18.703 30.691,18.797 28.769,18.797 28.769,18.703 
		29.329,18.563 29.329,12.463 28.769,12.32 28.769,12.227 30.691,12.227 30.691,12.32 30.127,12.463 	"/>
	<polygon clip-path="url(#SVGID_2_)" points="35.432,12.559 34.821,12.321 34.821,12.227 36.229,12.227 36.229,12.321 
		35.618,12.559 35.618,18.891 35.478,18.891 32.287,13.025 32.287,18.471 32.898,18.704 32.898,18.797 31.489,18.797 31.489,18.704 
		32.1,18.471 32.1,12.51 31.489,12.321 31.489,12.227 32.755,12.227 35.432,17.154 	"/>
	<path clip-path="url(#SVGID_2_)" d="M41.391,15.512c0,0.578-0.065,1.078-0.191,1.508c-0.13,0.428-0.298,0.785-0.507,1.07
		c-0.212,0.283-0.445,0.498-0.71,0.639s-0.528,0.209-0.797,0.209c-0.271,0-0.534-0.068-0.799-0.209
		c-0.262-0.141-0.498-0.355-0.708-0.639c-0.211-0.285-0.379-0.643-0.509-1.07c-0.126-0.43-0.191-0.93-0.191-1.508
		c0-0.574,0.065-1.076,0.191-1.504c0.13-0.43,0.298-0.787,0.509-1.07c0.21-0.287,0.446-0.498,0.708-0.639
		c0.265-0.141,0.528-0.213,0.799-0.213c0.269,0,0.532,0.072,0.797,0.213c0.265,0.141,0.498,0.352,0.71,0.639
		c0.209,0.283,0.377,0.641,0.507,1.07C41.325,14.436,41.391,14.938,41.391,15.512 M40.499,15.512c0-0.643-0.041-1.178-0.118-1.598
		c-0.08-0.423-0.182-0.76-0.311-1.01c-0.127-0.25-0.27-0.428-0.426-0.525c-0.157-0.099-0.31-0.152-0.459-0.152
		s-0.304,0.053-0.462,0.152c-0.155,0.098-0.299,0.275-0.425,0.525c-0.129,0.25-0.232,0.587-0.311,1.01
		c-0.078,0.42-0.119,0.955-0.119,1.598c0,0.646,0.041,1.178,0.119,1.602c0.078,0.422,0.182,0.76,0.311,1.01
		c0.126,0.25,0.27,0.424,0.425,0.525c0.158,0.1,0.313,0.148,0.462,0.148s0.302-0.049,0.459-0.148
		c0.156-0.102,0.299-0.275,0.426-0.525c0.129-0.25,0.23-0.588,0.311-1.01C40.458,16.689,40.499,16.158,40.499,15.512"/>
	<rect y="9.689" clip-path="url(#SVGID_2_)" width="41.391" height="0.037"/>
	<rect y="21.299" clip-path="url(#SVGID_2_)" width="41.391" height="0.035"/>
	<path clip-path="url(#SVGID_2_)" d="M24.239,4.16c0,1.955-1.587,3.541-3.544,3.541c-1.955,0-3.543-1.586-3.543-3.541
		c0-1.959,1.588-3.547,3.543-3.547C22.652,0.613,24.239,2.201,24.239,4.16"/>
	<path clip-path="url(#SVGID_2_)" d="M20.695,8.318c-2.291,0-4.157-1.867-4.157-4.158c0-2.295,1.866-4.16,4.157-4.16
		c2.292,0,4.158,1.865,4.158,4.16C24.854,6.451,22.987,8.318,20.695,8.318 M20.695,0.072c-2.253,0-4.085,1.832-4.085,4.088
		c0,2.25,1.832,4.086,4.085,4.086c2.254,0,4.086-1.836,4.086-4.086C24.781,1.904,22.949,0.072,20.695,0.072"/>
	<path clip-path="url(#SVGID_2_)" fill="#FFFFFF" d="M22.138,2.676c-0.13,0-0.25,0.023-0.363,0.068
		c-0.27-0.24-0.66-0.394-1.101-0.394c-0.43,0-0.817,0.148-1.087,0.385c-0.101-0.038-0.214-0.059-0.333-0.059
		c-0.547,0-0.993,0.445-0.993,0.992c0,0.547,0.446,0.992,0.993,0.992v1.309h2.884V4.66c0.547,0,0.993-0.445,0.993-0.992
		C23.131,3.121,22.685,2.676,22.138,2.676"/>
	<path clip-path="url(#SVGID_2_)" d="M16.247,24.432c-0.214,0-0.355-0.055-0.489-0.189l0.104-0.102
		c0.118,0.115,0.228,0.152,0.387,0.152c0.21,0,0.336-0.096,0.336-0.264c0-0.074-0.023-0.137-0.068-0.176
		c-0.044-0.041-0.081-0.053-0.185-0.068l-0.165-0.025c-0.113-0.02-0.2-0.055-0.261-0.109c-0.075-0.064-0.11-0.152-0.11-0.264
		c0-0.242,0.173-0.402,0.457-0.402c0.181,0,0.303,0.047,0.423,0.156l-0.099,0.098c-0.088-0.08-0.182-0.121-0.33-0.121
		c-0.189,0-0.3,0.104-0.3,0.264c0,0.068,0.02,0.123,0.064,0.162c0.043,0.039,0.117,0.066,0.192,0.08l0.154,0.021
		c0.135,0.02,0.201,0.049,0.261,0.101c0.077,0.065,0.118,0.163,0.118,0.282C16.736,24.277,16.542,24.432,16.247,24.432"/>
	<rect x="17.056" y="22.996" clip-path="url(#SVGID_2_)" width="0.152" height="1.422"/>
	<polygon clip-path="url(#SVGID_2_)" points="18.525,24.418 17.771,23.279 17.771,24.418 17.621,24.418 17.621,22.996 
		17.763,22.996 18.517,24.133 18.517,22.996 18.67,22.996 18.67,24.418 	"/>
	<path clip-path="url(#SVGID_2_)" d="M19.523,24.432c-0.137,0-0.267-0.053-0.363-0.148c-0.133-0.135-0.133-0.275-0.133-0.574
		c0-0.303,0-0.443,0.133-0.576c0.096-0.096,0.226-0.148,0.363-0.148c0.257,0,0.445,0.156,0.495,0.424h-0.157
		c-0.038-0.174-0.159-0.288-0.338-0.288c-0.093,0-0.182,0.034-0.245,0.101c-0.09,0.092-0.099,0.188-0.099,0.488
		c0,0.297,0.009,0.393,0.099,0.486c0.063,0.063,0.152,0.098,0.245,0.098c0.179,0,0.306-0.111,0.345-0.285h0.15
		C19.973,24.273,19.78,24.432,19.523,24.432"/>
	<polygon clip-path="url(#SVGID_2_)" points="20.354,24.418 20.354,22.996 21.238,22.996 21.238,23.133 20.506,23.133 
		20.506,23.633 21.13,23.633 21.13,23.77 20.506,23.77 20.506,24.283 21.238,24.283 21.238,24.418 	"/>
	<polygon clip-path="url(#SVGID_2_)" points="22.36,24.418 22.36,23.154 22.093,23.389 22.093,23.227 22.36,22.996 22.503,22.996 
		22.503,24.418 	"/>
	<path clip-path="url(#SVGID_2_)" d="M23.712,23.713l-0.351,0.705h-0.15l0.319-0.639c-0.045,0.02-0.095,0.031-0.151,0.031
		c-0.222,0-0.367-0.172-0.367-0.404c0-0.244,0.152-0.422,0.395-0.422s0.396,0.162,0.396,0.41
		C23.803,23.496,23.771,23.592,23.712,23.713 M23.406,23.111c-0.152,0-0.251,0.115-0.251,0.289c0,0.156,0.085,0.285,0.251,0.285
		c0.151,0,0.251-0.109,0.251-0.285C23.657,23.227,23.558,23.111,23.406,23.111"/>
	<path clip-path="url(#SVGID_2_)" d="M24.451,24.432c-0.234,0-0.418-0.164-0.418-0.404c0-0.166,0.094-0.277,0.211-0.348
		c-0.109-0.063-0.184-0.168-0.184-0.316c0-0.219,0.165-0.379,0.391-0.379s0.394,0.16,0.394,0.379c0,0.148-0.074,0.254-0.184,0.316
		c0.117,0.07,0.211,0.182,0.211,0.348C24.872,24.268,24.688,24.432,24.451,24.432 M24.451,23.746c-0.153,0-0.275,0.121-0.275,0.277
		c0,0.16,0.122,0.279,0.275,0.279c0.156,0,0.278-0.119,0.278-0.279C24.729,23.867,24.607,23.746,24.451,23.746 M24.451,23.111
		c-0.145,0-0.248,0.109-0.248,0.256c0,0.15,0.104,0.256,0.248,0.256c0.146,0,0.248-0.105,0.248-0.256
		C24.699,23.221,24.598,23.111,24.451,23.111"/>
	<polygon clip-path="url(#SVGID_2_)" points="25.488,24.418 25.488,23.154 25.225,23.389 25.225,23.227 25.488,22.996 
		25.631,22.996 25.631,24.418 	"/>
	<path clip-path="url(#SVGID_2_)" d="M14.492,23.709c0,0.125-0.105,0.229-0.231,0.229c-0.13,0-0.232-0.104-0.232-0.229
		c0-0.131,0.102-0.232,0.232-0.232C14.387,23.477,14.492,23.578,14.492,23.709"/>
	<path clip-path="url(#SVGID_2_)" d="M27.362,23.709c0,0.125-0.103,0.229-0.231,0.229c-0.126,0-0.23-0.104-0.23-0.229
		c0-0.131,0.104-0.232,0.23-0.232C27.26,23.477,27.362,23.578,27.362,23.709"/>
</g>
</svg>
