<?xml version="1.0" encoding="utf-8"?>
<!-- Generator: Adobe Illustrator 16.0.0, SVG Export Plug-In . SVG Version: 6.00 Build 0)  -->
<!DOCTYPE svg PUBLIC "-//W3C//DTD SVG 1.1//EN" "http://www.w3.org/Graphics/SVG/1.1/DTD/svg11.dtd">
<svg version="1.1" id="Layer_1" xmlns="http://www.w3.org/2000/svg" xmlns:xlink="http://www.w3.org/1999/xlink" x="0px" y="0px"
	 width="79px" height="76px" viewBox="0 0 226.94 219.294" enable-background="new 0 0 226.94 219.294"
	 xml:space="preserve">
<g>
	<defs>
		<rect id="SVGID_1_" width="226.94" height="219.294"/>
	</defs>
	<clipPath id="SVGID_2_">
		<use xlink:href="#SVGID_1_"  overflow="visible"/>
	</clipPath>
	<path clip-path="url(#SVGID_2_)" fill="#fcba4f" d="M203.539,73.723c-1.656,0-3-1.343-3-3V55.291h-79.481v15.432
		c0,1.657-1.343,3-3,3s-3-1.343-3-3V49.291h91.481v21.432C206.539,72.38,205.196,73.723,203.539,73.723"/>
	<path clip-path="url(#SVGID_2_)" fill="#fcba4f" d="M196.505,219.294h-66.957L108.791,97.832c-0.279-1.633,0.819-3.183,2.452-3.462
		c1.635-0.278,3.184,0.819,3.462,2.451l19.907,116.473h56.832L211.35,96.821c0.278-1.633,1.823-2.733,3.463-2.451
		c1.632,0.278,2.729,1.829,2.451,3.462L196.505,219.294z"/>
	<path clip-path="url(#SVGID_2_)" fill="#fcba4f" d="M226.94,98.583H94.661V68.298H226.94V98.583z M100.661,92.583H220.94V74.298
		H100.661V92.583z"/>
	<path clip-path="url(#SVGID_2_)" fill="#fcba4f" d="M160.801,54.832c-0.19,0-0.383-0.018-0.575-0.056
		c-1.627-0.316-2.689-1.891-2.373-3.517l6.52-33.534c0.317-1.626,1.886-2.687,3.519-2.372c1.627,0.316,2.688,1.891,2.373,3.518
		l-6.521,33.533C163.463,53.837,162.207,54.832,160.801,54.832"/>
	<path clip-path="url(#SVGID_2_)" fill="#fcba4f" d="M167.32,21.298c-1.018,0-2.011-0.518-2.572-1.454
		c-0.855-1.419-0.397-3.263,1.022-4.117l25.425-15.298c1.423-0.853,3.266-0.395,4.117,1.024c0.855,1.42,0.397,3.263-1.022,4.118
		l-25.425,15.297C168.38,21.159,167.847,21.298,167.32,21.298"/>
	<path clip-path="url(#SVGID_2_)" fill="#fcba4f" d="M208.998,126.114h-91.621c-1.657,0-3-1.343-3-3s1.343-3,3-3h91.621
		c1.657,0,3,1.343,3,3S210.655,126.114,208.998,126.114"/>
	<path clip-path="url(#SVGID_2_)" fill="#fcba4f" d="M199.42,184.852h-70.869c-1.657,0-3-1.343-3-3c0-1.656,1.343-3,3-3h70.869
		c1.657,0,3,1.344,3,3C202.42,183.509,201.077,184.852,199.42,184.852"/>
	<path clip-path="url(#SVGID_2_)" fill="#fcba4f" d="M104.884,167.578c-1.657,0-3-1.344-3-3v-8.102c0-1.656,1.343-3,3-3
		c1.657,0,3,1.344,3,3v8.102C107.884,166.234,106.541,167.578,104.884,167.578"/>
	<path clip-path="url(#SVGID_2_)" fill="#fcba4f" d="M107.958,157.645H1.709v-3c0-29.332,23.831-53.195,53.123-53.195
		c29.294,0,53.126,23.863,53.126,53.195V157.645z M7.803,151.645h94.061c-1.55-24.632-22.052-44.195-47.032-44.195
		C29.854,107.45,9.352,127.013,7.803,151.645"/>
	<path clip-path="url(#SVGID_2_)" fill="#fcba4f" d="M17.203,177.296c-8.503,0-15.421-6.213-15.421-13.849c0-1.656,1.343-3,3-3
		c1.656,0,3,1.344,3,3c0,4.328,4.226,7.849,9.421,7.849c5.194,0,9.42-3.521,9.42-7.849c0-1.656,1.344-3,3-3c1.657,0,3,1.344,3,3
		C32.623,171.083,25.706,177.296,17.203,177.296"/>
	<path clip-path="url(#SVGID_2_)" fill="#fcba4f" d="M42.481,177.296c-8.504,0-15.422-6.213-15.422-13.849c0-1.656,1.343-3,3-3
		c1.656,0,3,1.344,3,3c0,4.328,4.227,7.849,9.422,7.849c5.194,0,9.419-3.521,9.419-7.849c0-1.656,1.344-3,3-3c1.657,0,3,1.344,3,3
		C57.9,171.083,50.984,177.296,42.481,177.296"/>
	<path clip-path="url(#SVGID_2_)" fill="#fcba4f" d="M67.756,177.296c-8.503,0-15.42-6.213-15.42-13.849c0-1.656,1.343-3,3-3
		c1.656,0,3,1.344,3,3c0,4.328,4.226,7.849,9.42,7.849c5.195,0,9.422-3.521,9.422-7.849c0-1.656,1.343-3,3-3c1.657,0,3,1.344,3,3
		C83.178,171.083,76.259,177.296,67.756,177.296"/>
	<path clip-path="url(#SVGID_2_)" fill="#fcba4f" d="M92.462,177.012c-8.503,0-15.421-6.213-15.421-13.85c0-1.656,1.344-3,3-3
		c1.657,0,3,1.344,3,3c0,4.328,4.227,7.85,9.421,7.85c5.195,0,9.421-3.521,9.421-7.85c0-1.656,1.344-3,3-3c1.657,0,3,1.344,3,3
		C107.883,170.799,100.965,177.012,92.462,177.012"/>
	<path clip-path="url(#SVGID_2_)" fill="#fcba4f" d="M72.49,211.99l-52.461-29.968h104.925L72.49,211.99z M42.629,188.022
		L72.49,205.08l29.863-17.058H42.629z"/>
	<path clip-path="url(#SVGID_2_)" fill="#fcba4f" d="M58.689,204.825H58.67l-48.543-0.297l-0.314-0.07
		C4.035,203.167,0,198.629,0,193.423c0-5.205,4.035-9.742,9.813-11.033l0.303-0.067l21.011-0.299
		c0.014-0.001,0.029-0.001,0.043-0.001c1.637,0,2.976,1.314,2.999,2.958c0.024,1.657-1.3,3.018-2.957,3.042l-20.369,0.29
		C7.978,189.052,6,191.122,6,193.423c0,2.299,1.972,4.367,4.832,5.109l47.875,0.293c1.657,0.01,2.992,1.361,2.981,3.02
		C61.678,203.494,60.337,204.825,58.689,204.825"/>
	<path clip-path="url(#SVGID_2_)" fill="#fcba4f" d="M107.449,218.354H10.902c-1.657,0-3-1.344-3-3c0-1.657,1.343-3,3-3h96.547
		c1.657,0,3,1.343,3,3C110.449,217.01,109.106,218.354,107.449,218.354"/>
	<path clip-path="url(#SVGID_2_)" fill="#fcba4f" d="M4.709,167.098c-1.657,0-3-1.343-3-3v-8.099c0-1.657,1.343-3,3-3
		c1.657,0,3,1.343,3,3v8.099C7.709,165.755,6.366,167.098,4.709,167.098"/>
	<path clip-path="url(#SVGID_2_)" fill="#fcba4f" d="M37.242,130.083c0,2.512-2.037,4.549-4.55,4.549
		c-2.512,0-4.549-2.037-4.549-4.549c0-2.515,2.037-4.551,4.549-4.551C35.205,125.532,37.242,127.568,37.242,130.083"/>
	<path clip-path="url(#SVGID_2_)" fill="#fcba4f" d="M59.669,118.549c0,2.512-2.036,4.549-4.549,4.549
		c-2.513,0-4.55-2.037-4.55-4.549c0-2.515,2.037-4.551,4.55-4.551C57.633,113.998,59.669,116.034,59.669,118.549"/>
	<path clip-path="url(#SVGID_2_)" fill="#fcba4f" d="M82.097,130.083c0,2.512-2.036,4.549-4.549,4.549
		c-2.513,0-4.55-2.037-4.55-4.549c0-2.515,2.037-4.551,4.55-4.551C80.061,125.532,82.097,127.568,82.097,130.083"/>
</g>
</svg>
