<?xml version="1.0" encoding="utf-8"?>
<!-- Generator: Adobe Illustrator 16.0.0, SVG Export Plug-In . SVG Version: 6.00 Build 0)  -->
<!DOCTYPE svg PUBLIC "-//W3C//DTD SVG 1.1//EN" "http://www.w3.org/Graphics/SVG/1.1/DTD/svg11.dtd">
<svg version="1.1" id="Layer_1" xmlns="http://www.w3.org/2000/svg" xmlns:xlink="http://www.w3.org/1999/xlink" x="0px" y="0px"
	 width="81px" height="66px" viewBox="0 0 232.96 188.944" enable-background="new 0 0 232.96 188.944"
	 xml:space="preserve">
<g>
	<defs>
		<rect id="SVGID_1_" width="232.96" height="188.944"/>
	</defs>
	<clipPath id="SVGID_2_">
		<use xlink:href="#SVGID_1_"  overflow="visible"/>
	</clipPath>
	<path clip-path="url(#SVGID_2_)" fill="#fcba4f" d="M117.8,176.944c-44.59,0-80.867-36.277-80.867-80.868
		c0-44.59,36.277-80.867,80.867-80.867c44.593,0,80.87,36.277,80.87,80.867C198.67,140.667,162.393,176.944,117.8,176.944
		 M117.8,21.208c-41.282,0-74.867,33.585-74.867,74.867s33.585,74.868,74.867,74.868c41.283,0,74.87-33.586,74.87-74.868
		S159.083,21.208,117.8,21.208"/>
	<path clip-path="url(#SVGID_2_)" fill="#fcba4f" d="M117.801,148.001c-28.632,0-51.927-23.294-51.927-51.926
		c0-28.631,23.295-51.924,51.927-51.924s51.927,23.293,51.927,51.924C169.728,124.708,146.433,148.001,117.801,148.001
		 M117.801,50.151c-25.324,0-45.927,20.602-45.927,45.924c0,25.323,20.603,45.926,45.927,45.926
		c25.323,0,45.927-20.603,45.927-45.926C163.728,70.753,143.124,50.151,117.801,50.151"/>
	<path clip-path="url(#SVGID_2_)" fill="#fcba4f" d="M3.857,49.976c-0.039,0-0.078-0.001-0.117-0.002
		c-1.656-0.064-2.946-1.457-2.883-3.113L2.45,5.431c0.064-1.655,1.475-2.96,3.113-2.882c1.656,0.063,2.946,1.457,2.882,3.113
		L6.853,47.091C6.791,48.708,5.461,49.976,3.857,49.976"/>
	<path clip-path="url(#SVGID_2_)" fill="#fcba4f" d="M14.262,50.563c-1.657,0-3-1.343-3-3V5.546c0-1.657,1.343-3,3-3
		c1.657,0,3,1.343,3,3v42.017C17.262,49.22,15.918,50.563,14.262,50.563"/>
	<path clip-path="url(#SVGID_2_)" fill="#fcba4f" d="M34.277,49.976c-1.604,0-2.934-1.268-2.996-2.885L29.687,5.662
		c-0.064-1.656,1.227-3.05,2.882-3.113c1.659-0.095,3.05,1.226,3.113,2.882l1.594,41.43c0.064,1.655-1.226,3.049-2.882,3.113
		C34.355,49.975,34.315,49.976,34.277,49.976"/>
	<path clip-path="url(#SVGID_2_)" fill="#fcba4f" d="M23.872,50.563c-1.657,0-3-1.343-3-3V5.546c0-1.657,1.343-3,3-3
		c1.657,0,3,1.343,3,3v42.017C26.872,49.22,25.529,50.563,23.872,50.563"/>
	<path clip-path="url(#SVGID_2_)" fill="#fcba4f" d="M19.196,188.944c-8.891,0-16.124-5.771-16.124-12.863
		c0-0.326,0-0.386,1.1-9.792c1.531-13.106,4.095-35.043,4.554-41.714c1.012-14.725,2.79-45.377,2.438-49.027
		c-0.259-2.703-2.943-5.347-5.369-6.92C2.9,66.751,0.141,62.043,0.01,58.75c-0.094-2.287,0.497-9.768,0.565-10.613l0.221-2.761
		h36.768l0.22,2.761c0.068,0.845,0.658,8.325,0.566,10.614c-0.132,3.292-2.889,7.999-5.785,9.876
		c-2.427,1.573-5.111,4.216-5.371,6.919c-0.351,3.665,1.428,34.312,2.44,49.028c0.454,6.599,3.015,28.386,4.546,41.403
		c1.108,9.433,1.14,9.758,1.14,10.103C35.32,183.173,28.087,188.944,19.196,188.944 M9.073,176.177
		c0.08,3.678,4.683,6.767,10.123,6.767c5.441,0,10.045-3.09,10.123-6.769c-0.07-0.747-0.548-4.815-1.098-9.496
		c-1.537-13.071-4.109-34.949-4.573-41.692c-0.469-6.815-2.908-44.992-2.427-50.014c0.569-5.914,5.84-9.929,8.08-11.381
		c1.451-0.94,3.008-3.94,3.054-5.082c0.043-1.073-0.145-4.293-0.345-7.134H6.349c-0.2,2.84-0.388,6.06-0.344,7.132
		c0.046,1.145,1.602,4.144,3.054,5.084c2.24,1.454,7.511,5.47,8.077,11.381c0.483,5.002-1.956,43.194-2.424,50.014
		c-0.469,6.813-3.043,28.839-4.581,41.998C9.602,171.51,9.142,175.443,9.073,176.177"/>
	<path clip-path="url(#SVGID_2_)" fill="#fcba4f" d="M220.462,188.944c-6.893,0-12.501-5.771-12.501-12.865
		c0-0.331,0.454-8.627,3.146-56.913l0.457-8.205c0.092-1.655,1.536-2.915,3.162-2.828c1.653,0.092,2.921,1.508,2.828,3.162
		l-0.457,8.205c-1.158,20.78-3.098,55.56-3.138,56.664c0.001,3.7,2.917,6.78,6.502,6.78c3.583,0,6.498-3.08,6.498-6.865
		c-0.036-0.94-1.716-30.901-2.827-50.727l-0.974-17.389c-0.092-1.654,1.174-3.07,2.828-3.162c1.644-0.088,3.071,1.173,3.163,2.828
		l0.974,17.387c2.407,42.955,2.836,50.721,2.836,51.063C232.96,183.172,227.354,188.944,220.462,188.944"/>
	<path clip-path="url(#SVGID_2_)" fill="#fcba4f" d="M219.768,113.21h-1.854c-4.545,0-8.935-2.399-11.745-6.418
		c-3.121-4.466-3.375-8.935-3.375-13.892l0.01-47.268c0.09-1.141,0.134-2.087,0.134-2.893C202.937,22.564,210.621,0,220.907,0
		c5.281,0,6.778,7.406,7.497,10.966l0.029,0.142c0.264,1.305,1.07,5.281,0.624,90.916c-0.011,1.815-0.017,2.951-0.017,3.238
		c0,2.18-0.758,4.214-2.135,5.726l-0.352,0.387l-0.465,0.245C224.094,112.675,221.965,113.21,219.768,113.21 M208.793,45.984V92.9
		c0,4.959,0.331,7.647,2.293,10.455c1.688,2.414,4.24,3.855,6.827,3.855h1.854c1.011,0,2.004-0.21,2.958-0.625
		c0.202-0.37,0.315-0.838,0.315-1.323c0-0.29,0.006-1.437,0.017-3.27c0.399-76.59-0.221-88.24-0.505-89.694l-0.029-0.144
		c-0.834-4.13-1.532-5.601-1.949-6.119c-4.132,0.859-11.638,17.137-11.638,36.704C208.937,43.674,208.89,44.737,208.793,45.984"/>
</g>
</svg>
